# xmcd
#
# Track frame offsets: 
#        150
#        13631
#        27762
#        44391
#        58969
#        79985
#        95792
#        115948
#        133032
#        147718
#        159968
#        181686
#        193032
#
# Disc length: 2867 seconds
#
# Revision: 0
# Processed by: cddbd v1.5.2PL0 Copyright (c) Steve Scherf et al.
# Submitted via: ExactAudioCopy v0.95b4
#
DISCID=b50b310d
DTITLE=Terry Cox  and Friends - Scene Songs
DYEAR=2008
DGENRE=Bluegrass
TTITLE0=Let Me Be Your Friend
TTITLE1=Gardens of Memories
TTITLE2=Almost Threw Your Love Away
TTITLE3=Grandpa Get Your Guitar
TTITLE4=Dreaming of a Little Cabin
TTITLE5=Paradise
TTITLE6=Like I Used To Do
TTITLE7=Darling Cory
TTITLE8=Heaven
TTITLE9=She's More to be Pitied
TTITLE10=Blue Diamond Mine
TTITLE11=Walk Through This World With Me
TTITLE12=Rider
EXTD=
EXTT0=
EXTT1=
EXTT2=
EXTT3=
EXTT4=
EXTT5=
EXTT6=
EXTT7=
EXTT8=
EXTT9=
EXTT10=
EXTT11=
EXTT12=
PLAYORDER=
